<?xml version="1.0" standalone="no"?><!DOCTYPE svg PUBLIC "-//W3C//DTD SVG 1.1//EN" "http://www.w3.org/Graphics/SVG/1.1/DTD/svg11.dtd"><svg t="1626479020338" class="icon" viewBox="0 0 1146 1024" version="1.1" xmlns="http://www.w3.org/2000/svg" p-id="941" xmlns:xlink="http://www.w3.org/1999/xlink" width="223.828125" height="200"><defs><style type="text/css"></style></defs><path d="M676.906539 471.512223s68.960035 199.192758-298.417689 420.510866c-47.609879 35.949658-325.678705 114.567328-325.678706 114.567328 11.531022 1.808788 332.687758 47.41608 624.096395-78.391571 311.983598-203.488629 56.524619-472.513516 56.524619-472.513517z" fill="#303F5B" p-id="942"></path><path d="M221.673406 219.896918A349.806643 349.806643 0 0 1 466.085859 26.582721a645.995647 645.995647 0 0 1 378.55345 49.289468c149.031196 69.186134 324.677412 230.168249 276.809134 520.86629l-11.337223-28.520708c13.856607-73.288206-188.081633-349.192947-517.087216-213.178563-66.053055-55.361827-165.568684-81.201653-239.018389-26.453522a318.088257 318.088257 0 0 0-90.245592 148.578999 237.629499 237.629499 0 0 1-41.989717-257.170867z m467.47475 252.842697c73.029808 83.979434-93.47557 306.621834-219.832318 390.375169-140.891651 93.410971-326.034003 149.321894-466.925654 144.250828a1114.794688 1114.794688 0 0 0 450.969561-168.346466c119.509195-79.295966 208.462795-208.075198 220.769013-289.664448s-81.750749-194.735388-81.201653-194.541589c139.922657-130.232722 534.012302-140.633252 517.087215 213.178564" fill="#C3D2FB" p-id="943"></path><path d="M473.547109 441.215027c33.785572-68.701637 57.88121-112.112545 173.934328-137.532473s350.161941-34.786866 445.123301 188.630729-9.496136 361.951361-131.524714 438.727943c-177.939501 101.130619-541.796549 84.56083-643.217866 80.749456a751.874334 751.874334 0 0 0 316.537867-131.427814c84.399331-55.943223 148.256001-129.715926 155.038956-207.590701a149.87099 149.87099 0 0 0-32.299783-107.299877c-41.989717-53.262341-128.391635-88.016907-189.018326-42.829512-38.436741 28.617607-47.383781 54.90963-66.86055 102.713308a187.338738 187.338738 0 0 1-27.939311-184.334858z" fill="#386BF3" p-id="944"></path></svg>